<?xml version="1.0" encoding="utf-8"?>
<!DOCTYPE svg PUBLIC "-//W3C//DTD SVG 1.0//EN" "http://www.w3.org/TR/2001/REC-SVG-20010904/DTD/svg10.dtd">
<svg version="1.0" xmlns="http://www.w3.org/2000/svg" width="900px" height="305px" viewBox="0 0 900 305" preserveAspectRatio="xMidYMid meet">
 <g fill="#4a4a4a">
  <path d="M458.7 250.6 c-0.9 -0.7 -3.5 -4.6 -5.8 -8.7 -9.2 -16.5 -13.1 -22.9 -14 -22.9 -0.6 0 -2.3 0.7 -3.9 1.5 l-3 1.6 0 12.4 c0 11.8 -0.1 12.5 -2.2 13.9 -2.1 1.3 -5.5 2 -8.4 1.7 -0.7 -0.1 -1.5 -0.8 -1.8 -1.8 -0.4 -0.9 -0.9 -14.3 -1.1 -29.7 -0.3 -15.5 -0.7 -33.5 -1 -40.1 -0.3 -6.6 -0.1 -12.6 0.3 -13.3 0.7 -1 1.8 -1 5.3 -0.1 2.4 0.6 6.1 1.3 8.1 1.4 3.8 0.3 4.8 1 18.8 14.1 3.6 3.3 7.8 7 9.5 8.3 2.1 1.6 3 3.1 3.1 5.4 0 1.8 0.4 4.1 0.7 5.2 0.5 1.6 -0.6 2.8 -5.8 6.5 -3.5 2.5 -6.4 5.1 -6.5 5.8 0 0.8 2.4 5.5 5.4 10.5 8 13.7 11.8 21.6 11.1 23.5 -0.3 0.9 -2 2.7 -3.8 3.8 -2.7 1.8 -3.6 1.9 -5 1z m-17.7 -48.6 c3.2 -2.2 6.2 -4.4 6.5 -5 0.6 -1 -14.2 -16 -15.7 -16 -1 0 -1 24.4 -0.1 25.4 1 0.9 2.5 0.2 9.3 -4.4z"/>
  <path d="M788 251.1 c0 -0.5 -0.7 -1.7 -1.6 -2.5 -1.4 -1.4 -1.6 -6.3 -1.4 -41.3 0 -28.2 0.4 -39.9 1.2 -40.4 1.7 -1.1 10.1 -0.8 11.6 0.4 0.9 0.7 1.2 8.7 1.2 33.9 l0 33 2.7 -0.7 c1.4 -0.3 5.2 -1.9 8.2 -3.4 l5.6 -2.7 0.5 -31.5 0.5 -31.4 2.5 0.3 c1.4 0.1 4.4 1 6.7 1.8 l4.2 1.5 0.3 32.2 c0.2 17.7 0.2 32.7 0 33.4 -0.2 0.6 -5.6 3.5 -12 6.3 -6.4 2.9 -15 6.7 -19.1 8.6 -7.3 3.4 -11.1 4.2 -11.1 2.5z"/>
  <path d="M305 248.7 c-6.7 -4.5 -6.6 -4.8 5.8 -16.5 6.2 -5.9 11.2 -11.2 11.2 -11.8 0 -0.5 -4.3 -4.6 -9.7 -9 -15.9 -13.1 -15.4 -12.6 -15.5 -16.4 -0.1 -3.1 0.9 -4.4 12.8 -15.7 7.1 -6.8 13.6 -12.3 14.5 -12.3 1.4 0 5.3 3.6 7.3 6.8 0.6 1 -2.3 4.3 -9.5 11.3 -10 9.5 -10.3 9.9 -8.4 11.4 1.1 0.8 6.5 5.4 12.1 10 8.4 7.1 10.3 9.3 11.4 12.8 l1.2 4.2 -13.3 12.8 c-7.4 7 -14.1 13.2 -15 13.7 -1.2 0.7 -2.6 0.3 -4.9 -1.3z"/>
  <path d="M553.1 250.1 c-0.9 -0.5 -1.1 -1.6 -0.7 -2.7 0.8 -2.1 0.9 -42.5 0.1 -46.4 -0.3 -1.4 -0.2 -9.6 0.1 -18.2 0.5 -11.5 1 -15.8 1.9 -15.8 0.7 0 3.5 -0.7 6.3 -1.6 l5 -1.6 4.5 3.1 c2.5 1.7 7.2 6.1 10.4 9.8 3.2 3.7 9.3 10.4 13.6 14.9 4.2 4.4 7.7 8.8 7.7 9.8 0 1 -1 3.1 -2.2 4.6 -1.3 1.6 -3.3 4.4 -4.6 6.2 -4.6 6.7 -24.5 33.4 -26.4 35.4 -1.1 1.2 -2.9 2.2 -4.1 2.1 -1.2 0 -4 0.3 -6.2 0.7 -2.2 0.4 -4.6 0.2 -5.4 -0.3z m20.4 -29.3 c14.1 -19 14.3 -19.4 9.5 -22.8 -1.6 -1.1 -5.7 -5.4 -9.1 -9.5 -3.4 -4.1 -6.8 -7.5 -7.5 -7.5 -1.1 0 -1.4 3.8 -1.4 20.3 0 19.5 0.6 27.7 1.9 27.7 0.3 -0.1 3.3 -3.7 6.6 -8.2z"/>
  <path d="M695 250 c-0.8 -0.4 -3.4 -1.1 -5.7 -1.5 l-4.3 -0.7 0 -6.6 c0.1 -7.2 0.7 -14.8 3.9 -44.7 1.2 -10.4 2.1 -20.9 2.1 -23.3 0 -6.9 0.9 -7.8 7.6 -7.4 l5.9 0.4 2.8 6.3 c1.5 3.5 2.7 7 2.7 7.7 0.1 0.7 1.2 4.5 2.6 8.3 1.4 3.9 4 11.8 6 17.7 1.9 5.9 3.9 11 4.4 11.3 0.9 0.6 1.1 0.1 3 -8.9 1.5 -7 9.6 -34.5 11.4 -38.8 1.2 -2.7 2.3 -3.8 3.9 -3.9 1.2 0 3.9 -0.2 6 -0.5 2.5 -0.3 3.9 0 4.2 0.8 0.3 0.7 1.6 9.9 3 20.3 1.3 10.5 3.6 26.7 5 36 4.1 27.2 4.1 26.5 1.9 26.7 -3.7 0.3 -4.9 0.5 -7.7 1.3 -1.5 0.4 -3 0.6 -3.2 0.3 -0.5 -0.5 -4 -22.3 -6.1 -38.6 -0.9 -7.3 -2 -12.9 -2.5 -12.5 -0.7 0.8 -6 18.1 -8.2 26.8 -0.5 2.2 -2.1 7.5 -3.4 11.8 -2.3 7.2 -2.7 7.7 -5.2 7.7 -4.2 0 -7.3 -3.8 -10.5 -13.1 -7.5 -21.8 -12 -33 -12.7 -31.7 -0.7 1.4 -3.9 35.6 -3.9 42.8 0 5.3 -0.9 7.2 -3 6z"/>
  <path d="M855 248.7 c-6.7 -4.5 -6.6 -4.8 5.8 -16.5 6.2 -5.9 11.2 -11.2 11.2 -11.8 0 -0.5 -4.3 -4.6 -9.7 -9 -15.9 -13.1 -15.4 -12.6 -15.5 -16.4 -0.1 -3.1 0.9 -4.4 12.8 -15.7 7.1 -6.8 13.6 -12.3 14.5 -12.3 1.4 0 5.3 3.6 7.3 6.8 0.6 1 -2.3 4.3 -9.5 11.3 -10 9.5 -10.3 9.9 -8.4 11.4 1.1 0.8 6.5 5.4 12.1 10 8.4 7.1 10.3 9.3 11.4 12.8 l1.2 4.2 -13.3 12.8 c-7.4 7 -14.1 13.2 -15 13.7 -1.2 0.7 -2.6 0.3 -4.9 -1.3z"/>
  <path d="M161.5 247.3 c-0.5 -1.9 -0.9 -2.3 -1.8 -1.4 -0.6 0.6 -1.4 1.1 -1.8 1.1 -0.3 0 -0.7 -5.2 -0.8 -11.5 -0.1 -9.8 0.2 -11.7 1.5 -12.2 1.4 -0.5 1.6 -3.5 1.3 -27.1 l-0.4 -26.5 5.5 -1.4 c5.5 -1.4 5.5 -1.4 7.5 1.2 1.1 1.4 3.1 5.1 4.4 8.3 1.3 3.1 4.2 9 6.4 13 3.7 6.9 4 7.2 5.7 5.7 1.4 -1.3 1.9 -1.3 2.3 -0.3 0.3 0.7 0.6 0.4 0.6 -0.8 0.1 -1.1 1 -2.9 2.2 -4 1.8 -1.6 2 -2.7 1.5 -7.9 -0.3 -3.3 -0.2 -8.9 0.2 -12.5 l0.7 -6.4 4.7 0 c7.1 0.1 7.8 0.7 7.8 6 0 4 0.2 4.5 1.5 3.4 1.3 -1.1 1.5 0.4 1.5 12.3 0 10.9 -0.3 13.7 -1.5 14.7 -1.3 1.1 -1.6 4.5 -1.5 21.9 0 11.3 0.1 21.5 0 22.7 0 1.1 -0.6 2.1 -1.2 2.2 -0.7 0 -3.2 0.7 -5.5 1.4 -3.9 1.1 -4.4 1 -6.1 -0.8 -1.1 -1.1 -3.8 -6.4 -6.2 -11.7 -4.4 -10.2 -5.5 -11.6 -7.2 -9.9 -0.8 0.8 -1.8 -0.2 -3.4 -3.6 l-2.2 -4.7 -0.1 6.6 c-0.1 4.6 -0.6 7 -1.6 7.9 -1.1 0.9 -1.5 3.2 -1.5 8 l0 6.8 -3.7 0.7 c-7.6 1.6 -8.1 1.5 -8.8 -1.2z m14.3 -40.7 c-0.5 -3.3 -2.3 -2.4 -2.6 1.3 -0.3 3.1 -0.2 3.3 1.3 2.1 0.9 -0.7 1.5 -2.3 1.3 -3.4z"/>
  <path d="M253.8 249 c-2.9 -1.7 -26.8 -38.3 -26.8 -41.1 0 -3 19.1 -35.1 23.7 -39.7 0.7 -0.7 1.6 -1.9 2 -2.7 1.7 -3.1 5.5 -0.2 12.7 9.5 17.3 23.6 19.8 27.3 20.7 30.5 0.9 3.1 0.4 4.2 -8.7 18.7 -15.8 25.2 -15.6 24.9 -18.1 24.3 -1.3 -0.3 -2.3 -0.1 -2.3 0.5 0 1.2 -1 1.2 -3.2 0z m7.7 -23.5 c1.9 -3 5.1 -8.1 7.2 -11.2 l3.6 -5.7 -2.3 -4.1 c-1.3 -2.2 -4.5 -6.9 -7.2 -10.5 -2.6 -3.6 -5.4 -7.4 -6.1 -8.5 -1.4 -1.8 -1.5 -1.8 -4.1 2 -8.1 11.8 -11.7 18.5 -11.1 20.4 0.3 1.1 2.5 4.6 4.9 7.8 2.3 3.2 5.5 7.9 7 10.6 1.5 2.6 3.2 4.7 3.7 4.7 0.5 0 2.5 -2.5 4.4 -5.5z"/>
  <path d="M365.5 248.8 c-0.3 -0.7 -0.6 -17.3 -0.7 -36.8 l-0.3 -35.5 -8.2 0.4 c-7.1 0.3 -8.3 0.1 -8.3 -1.3 0 -0.9 -0.5 -2.5 -1.2 -3.5 -2 -3.3 -0.3 -4.8 6.7 -6 4.9 -0.9 9.8 -0.9 18.8 -0.1 6.7 0.6 15.4 1.2 19.2 1.3 6.7 0.2 7 0.3 7.3 2.8 0.2 1.4 -0.2 3.7 -0.7 5.2 -1 2.7 -1.2 2.7 -10.1 2.7 -4.9 0 -9.1 0.1 -9.2 0.3 -0.1 0.1 -0.5 16.1 -0.8 35.6 l-0.5 35.4 -5.8 0.4 c-4.1 0.3 -5.8 0.1 -6.2 -0.9z"/>
  <path d="M521.9 244 c-1.2 -3.3 -2.6 -6.3 -3 -6.6 -0.4 -0.2 -3.2 0.9 -6.1 2.5 -6.9 3.8 -12.9 4.8 -15.2 2.6 -0.9 -0.9 -1.6 -2 -1.6 -2.5 0 -1.5 7.9 -7.9 10.5 -8.5 11 -2.3 10.6 -1 5.4 -18 -2.5 -8 -4.9 -14.7 -5.4 -14.8 -0.9 -0.2 -1.1 0.3 -7.5 21.8 -2.3 7.7 -5.3 17.2 -6.7 21.1 l-2.5 7.2 -4.6 -0.3 c-6.9 -0.3 -6.9 -0.4 -7.5 -2 -0.3 -0.8 1 -6 2.9 -11.7 8.2 -24.2 17.4 -54.2 17.4 -56.9 0 -1.5 0.9 -5.2 2.1 -8.1 1.1 -2.9 1.9 -5.5 1.8 -5.8 -0.1 -0.3 0.5 -0.6 1.5 -0.8 2.5 -0.5 4.3 1.4 5 5.3 0.4 2.1 1.3 3.5 2.2 3.5 1.7 0 2.8 2.5 4.2 9.5 0.5 2.8 2.6 9.3 4.5 14.5 8.8 23.6 16.7 46.6 16.7 48.5 0 1.6 -0.9 2.5 -3.7 3.3 -8.7 2.6 -8 2.9 -10.4 -3.8z"/>
  <path d="M655.9 244 c-1.2 -3.3 -2.6 -6.3 -3 -6.6 -0.4 -0.2 -3.2 0.9 -6.1 2.5 -6.9 3.8 -12.9 4.8 -15.2 2.6 -0.9 -0.9 -1.6 -2 -1.6 -2.5 0 -1.5 7.9 -7.9 10.5 -8.5 11 -2.3 10.6 -1 5.4 -18 -2.5 -8 -4.9 -14.7 -5.4 -14.8 -0.9 -0.2 -1.1 0.3 -7.5 21.8 -2.3 7.7 -5.3 17.2 -6.7 21.1 l-2.5 7.2 -4.6 -0.3 c-6.9 -0.3 -6.9 -0.4 -7.5 -2 -0.3 -0.8 1 -6 2.9 -11.7 8.2 -24.2 17.4 -54.2 17.4 -56.9 0 -1.5 0.9 -5.2 2.1 -8.1 1.1 -2.9 1.9 -5.5 1.8 -5.8 -0.1 -0.3 0.5 -0.6 1.5 -0.8 2.5 -0.5 4.3 1.4 5 5.3 0.4 2.1 1.3 3.5 2.2 3.5 1.7 0 2.8 2.5 4.2 9.5 0.5 2.8 2.6 9.3 4.5 14.5 8.8 23.6 16.7 46.6 16.7 48.5 0 1.6 -0.9 2.5 -3.7 3.3 -8.7 2.6 -8 2.9 -10.4 -3.8z"/>
 </g>
 <g fill="#ffc045">
  <path d="M37.2 292.1 c-30.5 -10.5 -27.8 -53.9 6.8 -111.1 14.7 -24.3 32.7 -47.3 55 -70.4 38.4 -39.6 71.4 -65 107.5 -82.6 27 -13.2 46.3 -18.1 63 -16 38.6 4.9 39.1 50.5 1.3 113 -13.1 21.7 -33 47.4 -52.6 68 l-9.1 9.5 -0.1 -13.3 0 -13.2 9.5 -11 c37 -42.8 61.8 -89.8 61.8 -117.2 0 -13 -4.7 -17.8 -17.5 -17.8 -32.8 0 -87.9 32 -136.7 79.5 -35.5 34.6 -61.3 68.4 -77.1 101 -10.4 21.6 -14.3 34.3 -14.3 47 -0.1 13 3.4 17.3 14.6 18.2 12.9 1.1 32.2 -4.7 54.3 -16.2 13.9 -7.1 35 -20.7 47.2 -30.2 4.6 -3.6 8.5 -6.3 8.7 -6.1 0.2 0.2 0.7 4.9 1 10.5 l0.7 10.2 -2.8 2.6 c-6.3 5.9 -32.8 22.5 -47.9 30 -16.6 8.4 -30 13.5 -42 16 -9.9 2.1 -24.7 1.9 -31.3 -0.4z"/>
  <path d="M173.8 222.5 c-0.2 -9 0 -11.9 1.1 -13 1.2 -1.2 2 -0.2 5.7 7.1 l4.3 8.5 -3.7 3.2 c-7.7 6.7 -7 7.2 -7.4 -5.8z"/>
  <path d="M191.7 206.7 c-4.3 -7.2 -4.3 -8.7 -0.2 -12.7 3.5 -3.4 3.5 -3.4 3.6 -0.9 0.2 4.2 -0.2 17.4 -0.5 17.7 -0.2 0.1 -1.5 -1.7 -2.9 -4.1z"/>
 </g>
</svg>